<svg width="503" height="160" xmlns="http://www.w3.org/2000/svg"><g fill="#fff" fill-rule="evenodd"><path d="M73.352 25.004c-3.47 6.73-11.264 10.013-18.553 7.866a26.828 26.828 0 00-7.58-1.117c-5.238 0-12.223 3.042-12.223 9.125 0 6.373 7.713 8.835 12.66 10.428l7.276 2.173C70.213 57.969 82 65.645 82 83.316c0 10.861-2.62 22.014-11.35 29.401C62.063 119.96 50.566 123 39.507 123c-13.768 0-27.248-4.597-38.426-12.36a.188.188 0 01-.059-.243l12.145-22.736c7.131 6.227 15.571 11.296 25.321 11.296 6.695 0 13.825-3.33 13.825-11.007 0-7.966-11.205-10.718-17.317-12.457-17.9-5.068-29.687-9.703-29.687-30.85C5.309 22.484 21.17 8 43.146 8c11 0 24.447 3.439 34.185 8.891.088.05.122.16.075.25l-4.054 7.863zM113.766 55.058h.003c.063 0 .121-.03.156-.082C120.048 46.033 127.48 43 137.817 43 157.968 43 166 55.64 166 73.945v30.314c0 8.693-7.084 15.741-15.822 15.741h-10.566a.189.189 0 01-.19-.188V83.679c0-7.119 1.17-19.613-11.973-19.613-10.805 0-13.873 7.99-13.873 17.289v22.904c0 8.693-7.083 15.741-15.82 15.741H87.188a.188.188 0 01-.189-.188V45.658c0-.103.084-.188.19-.188h26.197c.105 0 .19.085.19.188v9.212c0 .105.084.188.189.188M198.351 83.073c0 9.507 6.256 16.82 17.021 16.82 10.767 0 17.022-7.313 17.022-16.82 0-9.214-6.255-16.965-17.022-16.965-10.765 0-17.021 7.751-17.021 16.965m43.885 37.44H231.71a.189.189 0 01-.189-.188v-7.958a.188.188 0 00-.188-.19.185.185 0 00-.157.088c-4.673 7.398-13.8 10.735-22.496 10.735-22.113 0-37.68-18.573-37.68-40.072C171 61.428 186.275 43 208.39 43c8.414 0 17.247 3.092 22.8 9.414.116.131.331.051.331-.124v-6.615c0-.104.085-.188.189-.188h26.101c.104 0 .189.084.189.188v58.992c0 8.752-7.058 15.846-15.764 15.846M291.605 83.016c0 9.494 6.256 16.796 17.022 16.796 10.766 0 17.023-7.302 17.023-16.796 0-9.2-6.257-16.94-17.023-16.94s-17.022 7.74-17.022 16.94m1.062-29.063h.002a.187.187 0 00.155-.085C297.64 46.478 306.624 43 315.32 43 337.579 43 353 61.694 353 83.162c0 21.615-15.275 39.725-37.39 39.725-8.562 0-17.414-3.052-23.089-9.59-.015-.017-.043-.007-.043.015v22.865c0 8.739-7.057 15.823-15.764 15.823H266V45.483h26.478v8.281c0 .105.085.19.189.19M383.606 83.016c0 9.494 6.255 16.796 17.021 16.796 10.766 0 17.023-7.302 17.023-16.796 0-9.2-6.257-16.94-17.023-16.94s-17.02 7.74-17.02 16.94m1.06-29.063h.002a.185.185 0 00.156-.085C389.64 46.478 398.624 43 407.32 43 429.58 43 445 61.694 445 83.162c0 21.615-15.275 39.725-37.39 39.725-8.418 0-17.117-2.95-22.803-9.266a.188.188 0 00-.329.126v22.43c0 8.739-7.057 15.823-15.762 15.823h-10.527a.188.188 0 01-.189-.188V45.672c0-.105.085-.189.189-.189h26.101c.105 0 .188.084.188.189v8.092c0 .105.085.19.19.19M473.225 81H458l18.276-69.86a.19.19 0 01.185-.14h27.35c.123 0 .213.115.183.234L488.87 69.066C487.03 76.09 480.595 81 473.225 81M450 106.103c.015 9.566 6.275 16.916 17.027 16.897 10.752-.018 16.987-7.388 16.973-16.954-.016-9.274-6.277-17.064-17.028-17.046-10.752.018-16.988 7.83-16.972 17.103M469 17h-1.333v-4.842h-.03L465.863 17h-.787l-1.773-4.842h-.03V17h-1.333v-6h2.151l1.379 3.55 1.378-3.55H469v6zm-7.804-4.842h-1.863V17h-1.469v-4.842H456V11h5.196v1.158z"/></g></svg>